<?xml version="1.0" standalone="no"?>
<!DOCTYPE svg PUBLIC "-//W3C//DTD SVG 20010904//EN"
 "http://www.w3.org/TR/2001/REC-SVG-20010904/DTD/svg10.dtd">
<svg version="1.0" xmlns="http://www.w3.org/2000/svg"
 width="136.000000pt" height="136.000000pt" viewBox="0 0 136.000000 136.000000"
 preserveAspectRatio="xMidYMid meet">
<metadata>
Created by potrace 1.14, written by Peter Selinger 2001-2017
</metadata>
<g transform="translate(0.000000,136.000000) scale(0.100000,-0.100000)"
fill="#000000" stroke="none">
<path d="M114 1289 c-11 -6 -28 -23 -37 -39 -15 -25 -17 -80 -17 -550 0 -512
0 -523 21 -556 11 -19 21 -35 22 -36 5 -6 1094 -12 1090 -6 -2 5 0 8 5 8 5 0
21 12 36 26 l26 27 0 526 c0 289 -3 536 -6 548 -4 13 -21 32 -39 43 -31 19
-48 20 -556 19 -331 0 -532 -4 -545 -10z"/>
</g>
</svg>
