<svg width="14" height="14" viewBox="0 0 14 14" fill="none" xmlns="http://www.w3.org/2000/svg">
<path d="M4.10093 0.0489565C3.35613 0.0840966 2.8475 0.202957 2.40286 0.377678C1.94267 0.557018 1.55263 0.797679 1.16454 1.18716C0.776459 1.57664 0.537477 1.96696 0.359395 2.42784C0.187053 2.87347 0.0702921 3.38251 0.0373917 4.12773C0.0044914 4.87295 -0.00278868 5.11249 0.000851359 7.01342C0.0044914 8.91435 0.0128915 9.15263 0.0490118 9.89939C0.0845722 10.6441 0.203013 11.1525 0.377735 11.5973C0.557357 12.0575 0.797739 12.4474 1.18736 12.8356C1.57699 13.2238 1.96703 13.4623 2.42904 13.6406C2.87424 13.8127 3.38343 13.93 4.12851 13.9626C4.8736 13.9952 5.11342 14.0028 7.0138 13.9992C8.91418 13.9955 9.15344 13.9871 9.90007 13.9517C10.6467 13.9163 11.1525 13.797 11.5974 13.6231C12.0576 13.4431 12.4478 13.2031 12.8358 12.8134C13.2237 12.4236 13.4625 12.033 13.6405 11.5718C13.813 11.1266 13.9302 10.6175 13.9625 9.87293C13.9951 9.12575 14.0028 8.88719 13.9992 6.98654C13.9955 5.08589 13.987 4.84761 13.9516 4.10113C13.9162 3.35465 13.7976 2.84771 13.623 2.40264C13.4431 1.94246 13.203 1.55284 12.8135 1.16434C12.424 0.775839 12.0331 0.537138 11.5721 0.359618C11.1266 0.187277 10.6177 0.0698166 9.87263 0.0376165C9.12754 0.00541635 8.88772 -0.00284368 6.98664 0.000796331C5.08556 0.00443634 4.84756 0.0125564 4.10093 0.0489565ZM4.18269 12.7033C3.50019 12.6736 3.1296 12.5602 2.88264 12.4653C2.5556 12.3393 2.32263 12.187 2.07651 11.9433C1.83039 11.6995 1.67919 11.4657 1.55151 11.1394C1.45561 10.8924 1.3401 10.5223 1.30818 9.83975C1.27346 9.10209 1.26618 8.88061 1.26212 7.01174C1.25806 5.14287 1.2652 4.92167 1.29754 4.18373C1.32666 3.50179 1.44077 3.13079 1.53555 2.88397C1.66155 2.55651 1.81331 2.32396 2.05761 2.07798C2.30191 1.832 2.53502 1.68052 2.86164 1.55284C3.10832 1.45652 3.47849 1.342 4.16071 1.30952C4.89894 1.27452 5.12014 1.26752 6.98874 1.26346C8.85734 1.2594 9.0791 1.2664 9.81761 1.29888C10.4996 1.32856 10.8707 1.44154 11.1172 1.53688C11.4444 1.66288 11.6772 1.81422 11.9232 2.05894C12.1692 2.30366 12.3208 2.53593 12.4485 2.86325C12.545 3.10923 12.6595 3.47925 12.6917 4.16189C12.7268 4.90011 12.7348 5.12145 12.7382 6.9899C12.7415 8.85835 12.735 9.08025 12.7026 9.81791C12.6728 10.5004 12.5597 10.8711 12.4646 11.1184C12.3386 11.4453 12.1867 11.6784 11.9423 11.9242C11.6978 12.1701 11.465 12.3215 11.1382 12.4492C10.8918 12.5454 10.5213 12.6602 9.83959 12.6927C9.10136 12.7274 8.88016 12.7347 7.01086 12.7387C5.14156 12.7428 4.92106 12.7352 4.18283 12.7033M9.88929 3.25875C9.88957 3.4249 9.93911 3.58723 10.0317 3.72522C10.1242 3.86321 10.2556 3.97066 10.4092 4.03397C10.5628 4.09728 10.7318 4.11362 10.8947 4.08091C11.0576 4.04821 11.2071 3.96793 11.3244 3.85023C11.4416 3.73253 11.5214 3.58269 11.5535 3.41968C11.5856 3.25666 11.5686 3.08778 11.5047 2.9344C11.4409 2.78103 11.3329 2.65003 11.1946 2.558C11.0563 2.46596 10.8938 2.41701 10.7276 2.41734C10.5049 2.41779 10.2914 2.50668 10.1342 2.66446C9.97703 2.82225 9.88892 3.03601 9.88929 3.25875ZM3.40583 7.00698C3.40975 8.99219 5.022 10.5979 7.0068 10.5941C8.9916 10.5903 10.5984 8.97819 10.5946 6.99298C10.5908 5.00777 8.97816 3.40169 6.99308 3.40561C5.008 3.40953 3.40205 5.02205 3.40583 7.00698ZM4.66668 7.00446C4.66577 6.54296 4.80172 6.09156 5.05736 5.70733C5.313 5.3231 5.67684 5.0233 6.10286 4.84585C6.52888 4.6684 6.99796 4.62126 7.45077 4.7104C7.90358 4.79953 8.3198 5.02094 8.64677 5.34663C8.97375 5.67231 9.19681 6.08764 9.28774 6.54009C9.37867 6.99255 9.33339 7.4618 9.15763 7.88852C8.98186 8.31524 8.68351 8.68026 8.30029 8.93741C7.91707 9.19457 7.4662 9.33231 7.0047 9.33323C6.69827 9.33387 6.3947 9.27414 6.11135 9.15745C5.828 9.04076 5.57041 8.8694 5.3533 8.65315C5.13619 8.43689 4.9638 8.17999 4.84599 7.8971C4.72818 7.61422 4.66725 7.3109 4.66668 7.00446Z" fill="white"/>
</svg>
