<svg width="19" height="16" viewBox="0 0 19 16" fill="none" xmlns="http://www.w3.org/2000/svg">
<path fill-rule="evenodd" clip-rule="evenodd" d="M1.33987 6.88623C6.43298 4.60933 9.83746 3.13768 11.5261 2.41574C16.3741 0.360972 17.3818 0 18.0355 0C18.1716 0 18.4985 0.0277673 18.7164 0.19437C18.8798 0.333205 18.9342 0.527574 18.9615 0.666409C18.9887 0.805245 19.016 1.11068 18.9887 1.36059C18.7164 4.16506 17.5997 11.0235 17.0005 14.1612C16.7554 15.494 16.2651 15.9383 15.8021 15.9938C14.7944 16.0771 14.0046 15.2997 13.0241 14.661C11.4989 13.6336 10.6273 12.995 9.12933 11.9954C7.41347 10.8292 8.53014 10.1905 9.51063 9.16313C9.75576 8.88546 14.2497 4.74817 14.3314 4.35943C14.3314 4.3039 14.3586 4.13729 14.2497 4.05399C14.1407 3.97069 14.0046 3.99846 13.8956 4.02623C13.7322 4.05399 11.281 5.72002 6.51469 8.99653C5.80655 9.49634 5.18013 9.71848 4.60818 9.71848C3.98175 9.71848 2.78337 9.3575 1.88459 9.05207C0.795152 8.69109 -0.0763956 8.49672 0.00531201 7.88585C0.0870196 7.55264 0.522794 7.21944 1.33987 6.88623Z" fill="white"/>
</svg>
