<svg width="15" height="12" viewBox="0 0 15 12" fill="none" xmlns="http://www.w3.org/2000/svg">
<path d="M14.3568 1.45598C13.8449 1.67666 13.2888 1.83555 12.715 1.89733C13.3064 1.54425 13.7566 0.988142 13.9684 0.326109C13.4212 0.652711 12.8033 0.891044 12.1589 1.01462C11.6381 0.458515 10.8966 0.114258 10.0757 0.114258C8.49564 0.114258 7.22453 1.39419 7.22453 2.96542C7.22453 3.18609 7.25102 3.40677 7.29515 3.61862C4.92949 3.49504 2.81981 2.36517 1.41629 0.635058C1.16914 1.05876 1.0279 1.54425 1.0279 2.07388C1.0279 3.06251 1.53105 3.9364 2.29901 4.44837C1.83117 4.43072 1.38981 4.29831 1.01025 4.08646C1.01025 4.09529 1.01025 4.11294 1.01025 4.12177C1.01025 5.50762 1.99006 6.65515 3.29647 6.91996C3.05814 6.98175 2.80215 7.01706 2.54617 7.01706C2.3608 7.01706 2.18425 6.99941 2.00771 6.97292C2.36962 8.1028 3.42005 8.92372 4.6735 8.9502C3.69369 9.71816 2.46672 10.1683 1.13383 10.1683C0.895495 10.1683 0.674817 10.1595 0.445312 10.133C1.70759 10.9451 3.2082 11.413 4.82356 11.413C10.0669 11.413 12.9357 7.07002 12.9357 3.30085C12.9357 3.17727 12.9357 3.05369 12.9268 2.93011C13.483 2.52406 13.9684 2.02091 14.3568 1.45598Z" fill="white"/>
</svg>
