<svg width="14" height="14" viewBox="0 0 14 14" fill="none" xmlns="http://www.w3.org/2000/svg">
<path d="M0 0V2.54545C6.31909 2.54545 11.4545 7.68091 11.4545 14H14C14 6.26818 7.73182 0 0 0ZM0 4.45455V7C3.86273 7 7 10.1373 7 14H9.54545C9.54545 8.73091 5.26909 4.45455 0 4.45455ZM1.90909 10.1818C1.40277 10.1818 0.917184 10.383 0.55916 10.741C0.201136 11.099 0 11.5846 0 12.0909C0 12.5972 0.201136 13.0828 0.55916 13.4408C0.917184 13.7989 1.40277 14 1.90909 14C2.41541 14 2.901 13.7989 3.25902 13.4408C3.61705 13.0828 3.81818 12.5972 3.81818 12.0909C3.81818 11.5846 3.61705 11.099 3.25902 10.741C2.901 10.383 2.41541 10.1818 1.90909 10.1818Z" fill="white"/>
</svg>
