<svg width="23" height="23" viewBox="0 0 23 23" fill="none" xmlns="http://www.w3.org/2000/svg">
<path d="M22.7152 21.5347C23.0406 21.2093 23.0406 20.6701 22.7152 20.3447L3.095 0.724505C2.76962 0.399123 2.23041 0.399124 1.90503 0.724505L0.715063 1.91447C0.389681 2.23985 0.389681 2.77906 0.715062 3.10444L20.3352 22.7246C20.6606 23.05 21.1998 23.05 21.5252 22.7246L22.7152 21.5347Z" fill="#2A86E5"/>
<path d="M1.90471 22.7249C2.23009 23.0502 2.76929 23.0502 3.09467 22.7249L22.7149 3.10468C23.0402 2.77929 23.0402 2.24009 22.7149 1.91471L21.5249 0.724741C21.1995 0.39936 20.6603 0.399359 20.3349 0.724741L0.71474 20.3449C0.389358 20.6703 0.389357 21.2095 0.714739 21.5349L1.90471 22.7249Z" fill="#2A86E5"/>
</svg>
