<svg width="164" height="22" viewBox="0 0 164 22" fill="none" xmlns="http://www.w3.org/2000/svg">
<path d="M0.231875 21.5V0.499999H2.54188V19.43H15.0519V21.5H0.231875ZM26.7145 21.83C25.1945 21.83 23.7745 21.56 22.4545 21.02C21.1545 20.46 20.0045 19.69 19.0045 18.71C18.0245 17.71 17.2545 16.56 16.6945 15.26C16.1545 13.94 15.8845 12.52 15.8845 11C15.8845 9.48 16.1545 8.07 16.6945 6.77C17.2545 5.45 18.0245 4.3 19.0045 3.32C20.0045 2.32 21.1545 1.55 22.4545 1.01C23.7745 0.449999 25.1945 0.169999 26.7145 0.169999C28.2145 0.169999 29.6145 0.449999 30.9145 1.01C32.2345 1.55 33.3845 2.32 34.3645 3.32C35.3645 4.3 36.1345 5.45 36.6745 6.77C37.2345 8.07 37.5145 9.48 37.5145 11C37.5145 12.52 37.2345 13.94 36.6745 15.26C36.1345 16.56 35.3645 17.71 34.3645 18.71C33.3845 19.69 32.2345 20.46 30.9145 21.02C29.6145 21.56 28.2145 21.83 26.7145 21.83ZM26.7145 19.7C27.9145 19.7 29.0245 19.48 30.0445 19.04C31.0645 18.6 31.9545 17.99 32.7145 17.21C33.4945 16.41 34.0945 15.48 34.5145 14.42C34.9545 13.36 35.1745 12.22 35.1745 11C35.1745 9.76 34.9545 8.62 34.5145 7.58C34.0945 6.52 33.4945 5.6 32.7145 4.82C31.9545 4.02 31.0645 3.4 30.0445 2.96C29.0245 2.52 27.9145 2.3 26.7145 2.3C25.5145 2.3 24.3945 2.52 23.3545 2.96C22.3345 3.4 21.4345 4.02 20.6545 4.82C19.8945 5.6 19.2945 6.52 18.8545 7.58C18.4345 8.62 18.2245 9.75 18.2245 10.97C18.2245 12.21 18.4345 13.36 18.8545 14.42C19.2945 15.48 19.8945 16.41 20.6545 17.21C21.4345 17.99 22.3345 18.6 23.3545 19.04C24.3945 19.48 25.5145 19.7 26.7145 19.7ZM51.5023 21.83C49.9823 21.83 48.5623 21.55 47.2423 20.99C45.9423 20.43 44.7923 19.66 43.7923 18.68C42.8123 17.68 42.0423 16.53 41.4823 15.23C40.9223 13.91 40.6423 12.5 40.6423 11C40.6423 9.5 40.9123 8.1 41.4523 6.8C42.0123 5.48 42.7823 4.33 43.7623 3.35C44.7623 2.35 45.9123 1.57 47.2123 1.01C48.5323 0.449999 49.9523 0.169999 51.4723 0.169999C53.0923 0.169999 54.6223 0.469999 56.0623 1.07C57.5023 1.67 58.7323 2.52 59.7523 3.62L58.1923 5.21C57.3923 4.29 56.3923 3.58 55.1923 3.08C54.0123 2.56 52.7723 2.3 51.4723 2.3C50.2723 2.3 49.1523 2.52 48.1123 2.96C47.0923 3.4 46.1923 4.02 45.4123 4.82C44.6523 5.6 44.0523 6.52 43.6123 7.58C43.1923 8.62 42.9823 9.76 42.9823 11C42.9823 12.22 43.1923 13.36 43.6123 14.42C44.0523 15.48 44.6523 16.41 45.4123 17.21C46.1923 17.99 47.0923 18.6 48.1123 19.04C49.1523 19.48 50.2723 19.7 51.4723 19.7C52.8923 19.7 54.1723 19.39 55.3123 18.77C56.4723 18.15 57.4023 17.3 58.1023 16.22C58.8223 15.14 59.2423 13.92 59.3623 12.56H51.8323V10.52H61.7023V11.45C61.7023 12.91 61.4423 14.27 60.9223 15.53C60.4023 16.79 59.6823 17.89 58.7623 18.83C57.8423 19.77 56.7623 20.51 55.5223 21.05C54.2823 21.57 52.9423 21.83 51.5023 21.83ZM75.6148 21.83C74.0948 21.83 72.6748 21.56 71.3548 21.02C70.0548 20.46 68.9048 19.69 67.9048 18.71C66.9248 17.71 66.1548 16.56 65.5948 15.26C65.0548 13.94 64.7848 12.52 64.7848 11C64.7848 9.48 65.0548 8.07 65.5948 6.77C66.1548 5.45 66.9248 4.3 67.9048 3.32C68.9048 2.32 70.0548 1.55 71.3548 1.01C72.6748 0.449999 74.0948 0.169999 75.6148 0.169999C77.1148 0.169999 78.5148 0.449999 79.8148 1.01C81.1348 1.55 82.2848 2.32 83.2648 3.32C84.2648 4.3 85.0348 5.45 85.5748 6.77C86.1348 8.07 86.4148 9.48 86.4148 11C86.4148 12.52 86.1348 13.94 85.5748 15.26C85.0348 16.56 84.2648 17.71 83.2648 18.71C82.2848 19.69 81.1348 20.46 79.8148 21.02C78.5148 21.56 77.1148 21.83 75.6148 21.83ZM75.6148 19.7C76.8148 19.7 77.9248 19.48 78.9448 19.04C79.9648 18.6 80.8548 17.99 81.6148 17.21C82.3948 16.41 82.9948 15.48 83.4148 14.42C83.8548 13.36 84.0748 12.22 84.0748 11C84.0748 9.76 83.8548 8.62 83.4148 7.58C82.9948 6.52 82.3948 5.6 81.6148 4.82C80.8548 4.02 79.9648 3.4 78.9448 2.96C77.9248 2.52 76.8148 2.3 75.6148 2.3C74.4148 2.3 73.2948 2.52 72.2548 2.96C71.2348 3.4 70.3348 4.02 69.5548 4.82C68.7948 5.6 68.1948 6.52 67.7548 7.58C67.3348 8.62 67.1248 9.75 67.1248 10.97C67.1248 12.21 67.3348 13.36 67.7548 14.42C68.1948 15.48 68.7948 16.41 69.5548 17.21C70.3348 17.99 71.2348 18.6 72.2548 19.04C73.2948 19.48 74.4148 19.7 75.6148 19.7ZM94.7992 21.5V2.57H87.2092V0.499999H104.699V2.57H97.1092V21.5H94.7992ZM114.438 21.5V12.95L106.098 0.499999H108.798L115.668 10.91L122.508 0.499999H125.118L116.748 13.04V21.5H114.438ZM127.978 21.5V0.499999H137.098C138.478 0.499999 139.668 0.749999 140.668 1.25C141.688 1.75 142.478 2.46 143.038 3.38C143.598 4.28 143.878 5.34 143.878 6.56C143.878 7.78 143.598 8.85 143.038 9.77C142.478 10.67 141.688 11.38 140.668 11.9C139.648 12.4 138.458 12.65 137.098 12.65H130.288V21.5H127.978ZM130.288 10.64H136.918C138.338 10.64 139.468 10.28 140.308 9.56C141.148 8.82 141.568 7.83 141.568 6.59C141.568 5.35 141.148 4.37 140.308 3.65C139.468 2.93 138.338 2.57 136.918 2.57H130.288V10.64ZM147.902 21.5V0.499999H162.932V2.54H150.212V9.89H158.522V11.9H150.212V19.46H163.052V21.5H147.902Z" fill="black"/>
</svg>
