<svg width="13" height="12" viewBox="0 0 13 12" fill="none" xmlns="http://www.w3.org/2000/svg">
<path d="M7.5 3.25C7.5 3.10938 7.39063 3 7.25 3H6.75C6.60938 3 6.5 3.10938 6.5 3.25V6H4.75C4.60938 6 4.5 6.10938 4.5 6.25V6.75C4.5 6.89063 4.60938 7 4.75 7H7.25C7.39063 7 7.5 6.89063 7.5 6.75V3.25ZM10.75 6C10.75 8.34375 8.84375 10.25 6.5 10.25C4.15625 10.25 2.25 8.34375 2.25 6C2.25 3.65625 4.15625 1.75 6.5 1.75C8.84375 1.75 10.75 3.65625 10.75 6ZM12.5 6C12.5 2.6875 9.8125 0 6.5 0C3.1875 0 0.5 2.6875 0.5 6C0.5 9.3125 3.1875 12 6.5 12C9.8125 12 12.5 9.3125 12.5 6Z" fill="#B3B3B1"/>
</svg>
