<svg width="17" height="15" viewBox="0 0 17 15" fill="none" xmlns="http://www.w3.org/2000/svg">
<path d="M16.0745 10.1156C15.8952 9.93619 15.6771 9.8464 15.4208 9.8464H10.9591L9.65143 11.154C9.27961 11.513 8.84374 11.6925 8.34375 11.6925C7.84386 11.6925 7.40785 11.5132 7.03607 11.154L5.738 9.8464H1.26682C1.01045 9.8464 0.792518 9.93629 0.612977 10.1156C0.43347 10.2951 0.34375 10.513 0.34375 10.7696V13.8464C0.34375 14.1028 0.43347 14.3207 0.612977 14.5002C0.792485 14.6797 1.01042 14.7693 1.26682 14.7693H15.4208C15.6771 14.7693 15.8952 14.6797 16.0745 14.5002C16.2541 14.3207 16.3438 14.1028 16.3438 13.8464V10.7696C16.3438 10.513 16.2541 10.2951 16.0745 10.1156ZM12.4689 13.356C12.347 13.4778 12.2027 13.5387 12.036 13.5387C11.8693 13.5387 11.7253 13.4778 11.6033 13.356C11.4816 13.2342 11.4208 13.09 11.4208 12.9234C11.4208 12.7568 11.4816 12.6124 11.6033 12.4907C11.7253 12.3688 11.8693 12.3078 12.036 12.3078C12.2027 12.3078 12.3469 12.3688 12.4689 12.4907C12.5906 12.6123 12.6515 12.7567 12.6515 12.9234C12.6515 13.09 12.5906 13.2342 12.4689 13.356ZM14.9303 13.356C14.8086 13.4778 14.6643 13.5387 14.4976 13.5387C14.3309 13.5387 14.1868 13.4778 14.0649 13.356C13.9432 13.2342 13.8824 13.09 13.8824 12.9234C13.8824 12.7568 13.9432 12.6124 14.0649 12.4907C14.1867 12.3688 14.3309 12.3078 14.4976 12.3078C14.6643 12.3078 14.8085 12.3688 14.9303 12.4907C15.0521 12.6123 15.1131 12.7567 15.1131 12.9234C15.1131 13.09 15.0522 13.2342 14.9303 13.356Z" fill="white"/>
<path d="M7.91108 10.279C8.02653 10.4007 8.17074 10.4616 8.34375 10.4616C8.51689 10.4616 8.66094 10.4007 8.77642 10.279L13.0842 5.97126C13.2828 5.78539 13.3278 5.56099 13.2188 5.29816C13.11 5.04823 12.9208 4.92325 12.6515 4.92312H10.1899V0.615411C10.1899 0.448768 10.1289 0.304523 10.0073 0.18274C9.88539 0.0609247 9.74121 0 9.57464 0H7.11286C6.94629 0 6.80204 0.0609247 6.68019 0.18274C6.55844 0.304523 6.49752 0.448735 6.49752 0.615411V4.92315H4.03598C3.76662 4.92315 3.57761 5.04827 3.46863 5.2982C3.35971 5.56092 3.40454 5.78543 3.60331 5.9713L7.91108 10.279Z" fill="white"/>
</svg>
