<svg width="11" height="13" viewBox="0 0 11 13" fill="none" xmlns="http://www.w3.org/2000/svg">
<path d="M10.5 10.1484C10.5 8.09375 9.99219 5.71875 7.94531 5.71875C7.3125 6.33594 6.45312 6.71875 5.5 6.71875C4.54688 6.71875 3.6875 6.33594 3.05469 5.71875C1.00781 5.71875 0.5 8.09375 0.5 10.1484C0.5 11.2891 1.25 12.2188 2.16406 12.2188H8.83594C9.75 12.2188 10.5 11.2891 10.5 10.1484ZM8.5 3.21875C8.5 1.5625 7.15625 0.21875 5.5 0.21875C3.84375 0.21875 2.5 1.5625 2.5 3.21875C2.5 4.875 3.84375 6.21875 5.5 6.21875C7.15625 6.21875 8.5 4.875 8.5 3.21875Z" fill="#B3B3B1"/>
</svg>
