<svg width="15" height="15" viewBox="0 0 15 15" fill="none" xmlns="http://www.w3.org/2000/svg">
<path fill-rule="evenodd" clip-rule="evenodd" d="M7.50095 0.25C7.76244 0.25 7.97443 0.461986 7.97443 0.723485V1.95455C7.97443 2.21604 7.76244 2.42803 7.50095 2.42803C7.23945 2.42803 7.02746 2.21604 7.02746 1.95455V0.723485C7.02746 0.461986 7.23945 0.25 7.50095 0.25ZM2.37258 2.37258C2.55749 2.18767 2.85728 2.18767 3.04219 2.37258L3.91719 3.24758C4.1021 3.43249 4.1021 3.73228 3.91719 3.91719C3.73228 4.1021 3.43249 4.1021 3.24758 3.91719L2.37258 3.04219C2.18767 2.85728 2.18767 2.55749 2.37258 2.37258ZM12.6293 2.37258C12.8142 2.55749 12.8142 2.85728 12.6293 3.04219L11.7543 3.91719C11.5694 4.1021 11.2696 4.1021 11.0847 3.91719C10.8998 3.73228 10.8998 3.43249 11.0847 3.24758L11.9597 2.37258C12.1446 2.18767 12.4444 2.18767 12.6293 2.37258ZM5.52646 4.54592C6.11091 4.15541 6.79804 3.94697 7.50095 3.94697C8.44352 3.94697 9.34749 4.32141 10.014 4.98791C10.6805 5.65441 11.0549 6.55837 11.0549 7.50095C11.0549 8.20386 10.8465 8.89098 10.456 9.47543C10.0655 10.0599 9.5104 10.5154 8.861 10.7844C8.21159 11.0534 7.497 11.1238 6.8076 10.9866C6.1182 10.8495 5.48494 10.511 4.98791 10.014C4.49087 9.51696 4.15239 8.8837 4.01526 8.19429C3.87813 7.50489 3.94851 6.7903 4.2175 6.1409C4.48649 5.49149 4.94202 4.93644 5.52646 4.54592ZM0.25 7.50095C0.25 7.23945 0.461986 7.02746 0.723485 7.02746H1.95455C2.21604 7.02746 2.42803 7.23945 2.42803 7.50095C2.42803 7.76244 2.21604 7.97443 1.95455 7.97443H0.723485C0.461986 7.97443 0.25 7.76244 0.25 7.50095ZM12.572 7.50095C12.572 7.23945 12.784 7.02746 13.0455 7.02746H14.2765C14.538 7.02746 14.75 7.23945 14.75 7.50095C14.75 7.76244 14.538 7.97443 14.2765 7.97443H13.0455C12.784 7.97443 12.572 7.76244 12.572 7.50095ZM3.91719 11.0847C4.1021 11.2696 4.1021 11.5694 3.91719 11.7543L3.04219 12.6293C2.85728 12.8142 2.55749 12.8142 2.37258 12.6293C2.18767 12.4444 2.18767 12.1446 2.37258 11.9597L3.24758 11.0847C3.43249 10.8998 3.73228 10.8998 3.91719 11.0847ZM11.0847 11.0847C11.2696 10.8998 11.5694 10.8998 11.7543 11.0847L12.6293 11.9597C12.8142 12.1446 12.8142 12.4444 12.6293 12.6293C12.4444 12.8142 12.1446 12.8142 11.9597 12.6293L11.0847 11.7543C10.8998 11.5694 10.8998 11.2696 11.0847 11.0847ZM7.50095 12.572C7.76244 12.572 7.97443 12.784 7.97443 13.0455V14.2765C7.97443 14.538 7.76244 14.75 7.50095 14.75C7.23945 14.75 7.02746 14.538 7.02746 14.2765V13.0455C7.02746 12.784 7.23945 12.572 7.50095 12.572Z" fill="white"/>
</svg>
