<svg width="86" height="85" viewBox="0 0 86 85" fill="none" xmlns="http://www.w3.org/2000/svg">
<path fill-rule="evenodd" clip-rule="evenodd" d="M44.2059 0.0190206C44.2539 0.0177672 44.3021 0.0176984 44.3499 0.0191143C52.4426 0.2587 60.311 2.76418 67.0334 7.25731C73.9438 11.8695 79.3527 18.3638 82.605 25.9533C85.3929 32.4647 86.4907 39.5616 85.7986 46.5991C85.1065 53.6365 82.6465 60.3915 78.6421 66.2501C73.9775 73.0814 67.4088 78.4287 59.7321 81.644C53.145 84.4 45.9657 85.4852 38.8465 84.801C31.7273 84.1169 24.8939 81.6851 18.9671 77.7265C12.0567 73.114 6.64735 66.6196 3.3944 59.0299C0.606928 52.5182 -0.490614 45.4213 0.201448 38.3837C0.893511 31.3461 3.35326 24.591 7.35724 18.732C7.9483 17.8671 8.57905 17.0115 9.24265 16.1851C9.9596 15.1045 11.1959 14.3909 12.6007 14.3909C14.8171 14.3909 16.6138 16.1671 16.6138 18.358C16.6138 19.2794 16.296 20.1274 15.7629 20.8009L15.7709 20.8068C10.7859 26.9152 8.04946 34.5174 8.01068 42.3657C7.9719 50.214 10.6331 57.8423 15.5575 63.9985C20.4819 70.1548 27.377 74.4734 35.1112 76.2456C42.8454 78.0177 50.9593 77.1382 58.1212 73.7514C65.2832 70.3645 71.0678 64.6715 74.5257 57.6066C77.9837 50.5418 78.9095 42.5247 77.1512 34.8712C75.393 27.2176 71.0552 20.3823 64.8497 15.4869C59.0089 10.8792 51.8402 8.24776 44.3977 7.95713C44.3379 7.95479 44.2912 7.95247 44.2543 7.95019C44.2097 7.95164 44.1648 7.95238 44.1198 7.95238C41.9035 7.95238 40.1068 6.17623 40.1068 3.98525C40.1068 1.79427 41.9035 0.0181252 44.1198 0.0181252C44.1486 0.0181252 44.1773 0.0184246 44.2059 0.0190206Z" fill="url(#paint0_angular_1_4239)"/>
<defs>
<radialGradient id="paint0_angular_1_4239" cx="0" cy="0" r="1" gradientUnits="userSpaceOnUse" gradientTransform="translate(44.7168 42.3162) rotate(-130.927) scale(38.5052 38.5703)">
<stop stop-color="#DC4A19"/>
<stop offset="0.121606" stop-color="#FCC539"/>
<stop offset="1" stop-color="#DC4A19"/>
</radialGradient>
</defs>
</svg>
