<svg width="21" height="17" viewBox="0 0 21 17" fill="none" xmlns="http://www.w3.org/2000/svg">
<path fill-rule="evenodd" clip-rule="evenodd" d="M4.29316 0.526238C4.29469 0.386147 4.35201 0.252306 4.45268 0.153779C4.55335 0.0552514 4.68925 -7.79229e-06 4.83086 1.65771e-07H16.1691C16.3106 -0.000110488 16.4463 0.0551797 16.5467 0.153787C16.6471 0.252394 16.7039 0.3863 16.7048 0.526238V3.41882L20.6403 4.46606C20.9038 4.53399 21.0568 4.82411 20.9803 5.10688L18.6128 13.8487L18.6122 16.468C18.6122 16.6091 18.5556 16.7444 18.4547 16.8442C18.3539 16.944 18.2171 17 18.0745 17H2.92316C2.78056 17 2.6438 16.944 2.54296 16.8442C2.44212 16.7444 2.38547 16.6091 2.38547 16.468V11.8966L0.0346768 5.50749C-0.0662439 5.2325 0.0607343 4.93214 0.316759 4.84007L4.29316 3.40817V0.526238ZM12.4554 2.28808L15.9697 3.22323V0.725575H5.02818V3.14349L11.3986 0.849509C11.655 0.757438 11.947 0.906797 12.0484 1.18178L12.4554 2.28808ZM18.4572 4.75895C18.3564 4.65919 18.2196 4.60314 18.077 4.60314H13.3073L12.762 3.12112L20.2198 5.10564L18.6134 11.0371L18.6147 5.13511C18.6147 4.99402 18.558 4.85872 18.4572 4.75895ZM0.792283 5.44118L2.38547 9.77125V5.13511C2.38547 5.02657 2.419 4.92144 2.48039 4.8333L0.792283 5.44118ZM11.4248 1.61241L12.5253 4.60314H3.11952L11.4248 1.61241ZM15.812 9.07206C15.783 9.08395 15.7519 9.09007 15.7206 9.09007H11.1862V7.90952H15.7206C15.7839 7.90952 15.8446 7.93439 15.8893 7.97867C15.9341 8.02295 15.9592 8.08301 15.9592 8.14563V8.85355C15.9593 8.88459 15.9531 8.91534 15.9412 8.94403C15.9292 8.97273 15.9116 8.99881 15.8895 9.02077C15.8673 9.04274 15.841 9.06017 15.812 9.07206ZM15.8892 13.5068C15.8444 13.551 15.7838 13.5758 15.7206 13.5758H11.1862V12.3952H15.7206C15.7839 12.3952 15.8446 12.4201 15.8893 12.4644C15.9341 12.5087 15.9592 12.5687 15.9592 12.6313V13.3401C15.9591 13.4026 15.9339 13.4626 15.8892 13.5068ZM16.6053 11.2634C16.5605 11.3076 16.4998 11.3325 16.4365 11.3325H11.1862V10.152H16.4365C16.4998 10.1521 16.5604 10.177 16.6052 10.2212C16.6499 10.2655 16.6751 10.3255 16.6752 10.3881V11.0964C16.6752 11.159 16.65 11.2191 16.6053 11.2634ZM9.87088 10.8075C9.87021 10.6278 9.85513 10.4484 9.8258 10.271H7.12948V11.335H8.67348C8.54609 11.9836 7.97035 12.4537 7.12948 12.4537C6.19224 12.4537 5.43368 11.6693 5.43368 10.742C5.43368 9.81478 6.1939 9.03033 7.12948 9.03033C7.53782 9.02376 7.9324 9.17632 8.22803 9.45508L9.04532 8.64649C8.52679 8.16519 7.84003 7.90122 7.12907 7.90993C6.75011 7.90542 6.37403 7.97537 6.0226 8.11573C5.67118 8.25609 5.3514 8.46406 5.08182 8.72758C4.81223 8.99111 4.5982 9.30496 4.45212 9.65093C4.30604 9.9969 4.23082 10.3681 4.23082 10.7431C4.23082 11.118 4.30604 11.4892 4.45212 11.8352C4.5982 12.1812 4.81223 12.495 5.08182 12.7585C5.3514 13.0221 5.67118 13.23 6.0226 13.3704C6.37403 13.5107 6.75011 13.5807 7.12907 13.5762C8.78351 13.5762 9.87088 12.4259 9.87088 10.8075Z" fill="white"/>
</svg>
