<svg width="16" height="15" viewBox="0 0 16 15" fill="none" xmlns="http://www.w3.org/2000/svg">
<path d="M14.7307 1.97945C13.9025 1.09596 12.766 0.609375 11.5304 0.609375C10.6068 0.609375 9.761 0.896557 9.01634 1.46287C8.64062 1.7487 8.30016 2.09846 8 2.50661C7.69994 2.09855 7.35938 1.7487 6.98353 1.46287C6.239 0.896557 5.39319 0.609375 4.46959 0.609375C3.234 0.609375 2.09741 1.09596 1.26916 1.97945C0.450812 2.85262 0 4.04551 0 5.3385C0 6.6693 0.504281 7.88755 1.58691 9.17237C2.55541 10.3217 3.94737 11.4884 5.55931 12.8394C6.10975 13.3008 6.73366 13.8237 7.38147 14.3808C7.55264 14.5282 7.77246 14.6095 8 14.6094C8.22766 14.6094 8.44738 14.5282 8.61828 14.381C9.26609 13.8238 9.89038 13.3006 10.441 12.839C12.0528 11.4882 13.4447 10.3217 14.4132 9.17225C15.4958 7.88758 16 6.66933 16 5.33838C16 4.04551 15.5492 2.85262 14.7307 1.97945Z" fill="white"/>
</svg>
