<svg width="15" height="21" viewBox="0 0 15 21" fill="none" xmlns="http://www.w3.org/2000/svg">
<path d="M7.96875 0.609375C3.96094 0.609375 0 3.28125 0 7.60547C0 10.3555 1.54688 11.918 2.48438 11.918C2.87109 11.918 3.09375 10.8398 3.09375 10.5352C3.09375 10.1719 2.16797 9.39844 2.16797 7.88672C2.16797 4.74609 4.55859 2.51953 7.65234 2.51953C10.3125 2.51953 12.2812 4.03125 12.2812 6.80859C12.2812 8.88281 11.4492 12.7734 8.75391 12.7734C7.78125 12.7734 6.94922 12.0703 6.94922 11.0625C6.94922 9.58594 7.98047 8.15625 7.98047 6.63281C7.98047 4.04688 4.3125 4.51563 4.3125 7.64063C4.3125 8.29688 4.39453 9.02344 4.6875 9.62109C4.14844 11.9414 3.04688 15.3984 3.04688 17.7891C3.04688 18.5273 3.15234 19.2539 3.22266 19.9922C3.35547 20.1406 3.28906 20.125 3.49219 20.0508C5.46094 17.3555 5.39062 16.8281 6.28125 13.3008C6.76172 14.2148 8.00391 14.707 8.98828 14.707C13.1367 14.707 15 10.6641 15 7.01953C15 3.14063 11.6484 0.609375 7.96875 0.609375Z" fill="white"/>
</svg>
