<svg width="19" height="19" viewBox="0 0 19 19" fill="none" xmlns="http://www.w3.org/2000/svg">
<path d="M16.4647 7.55859C15.8788 7.55859 15.3632 7.80078 14.9843 8.17969C13.5897 7.21484 11.7108 6.59375 9.6288 6.52734L10.7108 1.65234L14.1561 2.42578C14.1561 3.26953 14.8436 3.95703 15.6874 3.95703C16.5468 3.95703 17.2382 3.25 17.2382 2.40625C17.2382 1.5625 16.5507 0.855469 15.6874 0.855469C15.0858 0.855469 14.5663 1.21875 14.3085 1.71484L10.5038 0.871094C10.3124 0.820312 10.1249 0.957031 10.0741 1.14844L8.88661 6.52344C6.8202 6.60938 4.96083 7.23047 3.56239 8.19531C3.18348 7.80078 2.64833 7.55859 2.06239 7.55859C-0.109485 7.55859 -0.820423 10.4727 1.16786 11.4688C1.09755 11.7773 1.0663 12.1055 1.0663 12.4336C1.0663 15.707 4.7538 18.3594 9.28114 18.3594C13.828 18.3594 17.5155 15.707 17.5155 12.4336C17.5155 12.1055 17.4804 11.7617 17.3944 11.4531C19.3436 10.4531 18.6249 7.55859 16.4647 7.55859ZM4.3202 11.6758C4.3202 10.8164 5.0077 10.125 5.87098 10.125C6.71473 10.125 7.40223 10.8125 7.40223 11.6758C7.40223 12.5195 6.71473 13.207 5.87098 13.207C5.01161 13.2109 4.3202 12.5195 4.3202 11.6758ZM12.6913 15.3281C11.2694 16.75 7.2577 16.75 5.83583 15.3281C5.67958 15.1914 5.67958 14.9492 5.83583 14.793C5.97255 14.6563 6.21473 14.6563 6.35145 14.793C7.43739 15.9063 11.039 15.9258 12.1718 14.793C12.3085 14.6563 12.5507 14.6563 12.6874 14.793C12.8475 14.9492 12.8475 15.1914 12.6913 15.3281ZM12.66 13.2109C11.8163 13.2109 11.1288 12.5234 11.1288 11.6797C11.1288 10.8203 11.8163 10.1289 12.66 10.1289C13.5194 10.1289 14.2108 10.8164 14.2108 11.6797C14.2069 12.5195 13.5194 13.2109 12.66 13.2109Z" fill="white"/>
</svg>
