<svg width="18" height="12" viewBox="0 0 18 12" fill="none" xmlns="http://www.w3.org/2000/svg">
<path fill-rule="evenodd" clip-rule="evenodd" d="M15.2103 0.358258C15.9451 0.555387 16.5237 1.13623 16.7201 1.87384C17.0769 3.21071 17.0769 6 17.0769 6C17.0769 6 17.0769 8.78926 16.7201 10.1262C16.5237 10.8638 15.9451 11.4446 15.2103 11.6418C13.8786 12 8.53846 12 8.53846 12C8.53846 12 3.19836 12 1.86661 11.6418C1.13189 11.4446 0.553211 10.8638 0.356843 10.1262C0 8.78926 0 6 0 6C0 6 0 3.21071 0.356843 1.87384C0.553211 1.13623 1.13189 0.555387 1.86661 0.358258C3.19836 1.78814e-07 8.53846 0 8.53846 0C8.53846 0 13.8786 1.78814e-07 15.2103 0.358258ZM11.2533 6.00012L6.79004 8.53246V3.46754L11.2533 6.00012Z" fill="white"/>
</svg>
